<?xml version="1.0" encoding="UTF-8"?>
<svg version="1.1" xmlns="http://www.w3.org/2000/svg" width="1254" height="1254">
<path d="M0 0 C413.82 0 827.64 0 1254 0 C1254 413.82 1254 827.64 1254 1254 C840.18 1254 426.36 1254 0 1254 C0 840.18 0 426.36 0 0 Z " fill="#FDFDFD" transform="translate(0,0)"/>
<path d="M0 0 C0.67369629 0.31420898 1.34739258 0.62841797 2.04150391 0.95214844 C13.01755259 6.18344668 22.19715643 12.66337192 31.37426758 20.61035156 C32.80118546 21.83005671 34.27069454 22.99956484 35.74609375 24.16015625 C39.29209041 27.05472198 42.07391844 30.49600212 45 34 C45.63035156 34.7425 46.26070312 35.485 46.91015625 36.25 C59.31654587 51.24619263 70.07910562 69.33338469 73.6875 88.6875 C75.05659507 92.14283517 76.10150264 93.25758351 78.75 95.75 C83.54532392 100.26462203 87.40845716 105.26546535 91.3125 110.5625 C92.2101709 111.7676123 92.2101709 111.7676123 93.12597656 112.99707031 C99.87069004 122.24403836 102.46021901 128.06113935 102.23828125 139.70703125 C103.08590761 149.1385563 112.03324514 157.91294626 117.625 165.125 C118.31577637 166.02444336 119.00655273 166.92388672 119.71826172 167.85058594 C121.807832 170.57043552 123.90308249 173.2858124 126 176 C129.92007372 181.07882502 133.83308774 186.16202498 137.69775391 191.28320312 C138.83087311 192.77703407 139.98224451 194.25698566 141.13671875 195.734375 C144.43070177 200.18777862 145.65020373 203.37658958 145.40625 208.95703125 C145 211 145 211 143.98828125 212.98828125 C142.87039567 215.26381909 142.77140578 216.85782675 142.6875 219.375 C142.20264245 224.44928503 140.76528767 226.56940457 137 230 C135.96875 230.309375 134.9375 230.61875 133.875 230.9375 C132.92625 231.288125 131.9775 231.63875 131 232 C130.2884375 233.670625 130.2884375 233.670625 129.5625 235.375 C127.94667153 239.12372204 126.68664771 240.54508157 123.02734375 242.34765625 C117.20650739 244.22064213 111.57144019 243.28571905 106 241 C99.31519298 249.7594023 98.17518154 259.18270871 99 270 C99.41062883 272.41463791 99.91032742 274.73805963 100.5625 277.09765625 C101 279 101 279 101 283 C90.86550252 280.07715218 81.17889555 271.40638236 75.99414062 262.21728516 C71.60232825 253.74584435 68.85462194 246.48188739 68.875 236.8125 C68.87242187 235.58144531 68.86984375 234.35039063 68.8671875 233.08203125 C69 230 69 230 70 228 C63.15538957 225.87402252 53.13940724 225.53317826 46.5 228.5 C36.18485153 234.92179525 31.42823543 246.65071266 28.48974609 257.96459961 C26.76916996 265.48953853 26.73740203 272.80838667 26.8125 280.5 C26.81314453 281.75425781 26.81378906 283.00851562 26.81445312 284.30078125 C26.8472389 291.25865036 27.12681975 298.09494283 28 305 C26.72769531 305.02578125 25.45539063 305.0515625 24.14453125 305.078125 C-4.08495027 305.88824257 -40.25559369 312.60180321 -61.890625 332.76171875 C-65.22176134 334.71721916 -67.30762348 333.92215316 -71 333 C-74.20476569 331.74855977 -77.25105026 330.25395524 -80.3125 328.6875 C-81.18189209 328.24672119 -82.05128418 327.80594238 -82.94702148 327.35180664 C-125.77017477 305.11543891 -158.44084822 266.2895434 -173.62109375 220.5390625 C-176.25459885 212.16023568 -178.15018988 203.57961326 -180 195 C-180.35578125 193.37384766 -180.35578125 193.37384766 -180.71875 191.71484375 C-182.15744845 184.53193018 -182.72597677 177.3120935 -183 170 C-183.03399902 169.14744629 -183.06799805 168.29489258 -183.10302734 167.41650391 C-184.23524697 134.42121008 -177.11079121 103.3152537 -155 78 C-154.44957031 77.31808594 -153.89914062 76.63617188 -153.33203125 75.93359375 C-142.68297316 63.00801493 -127.42308343 53.26366041 -112 47 C-111.67 47.66 -111.34 48.32 -111 49 C-112.10492373 51.32340907 -113.27099864 53.55573567 -114.5 55.8125 C-123.49558701 73.18363025 -127.80592203 91.80583515 -131 111 C-131.13277344 111.78906738 -131.26554687 112.57813477 -131.40234375 113.39111328 C-136.52331674 145.43315635 -133.22481801 179.81106271 -122.8125 210.5 C-122 213 -122 213 -122 216 C-121.34 216 -120.68 216 -120 216 C-119.74347656 216.680625 -119.48695313 217.36125 -119.22265625 218.0625 C-108.47926808 245.26461415 -88.14356703 275.10064176 -61 288 C-61.47308594 287.55011719 -61.94617188 287.10023438 -62.43359375 286.63671875 C-81.37944914 268.20790425 -95.09651886 245.27900163 -104.625 220.75 C-105.12132935 219.48313354 -105.12132935 219.48313354 -105.62768555 218.19067383 C-107.6448266 212.7541734 -108.57023322 207.78442859 -109 202 C-107.86304688 201.33355469 -106.72609375 200.66710937 -105.5546875 199.98046875 C-95.41913566 193.96289852 -86.03692127 187.55905434 -77 180 C-76.4229834 179.52449707 -75.8459668 179.04899414 -75.25146484 178.55908203 C-64.28186196 169.50696694 -53.88428153 159.80398714 -44.66796875 148.94921875 C-42.68179747 146.62814271 -40.62244683 144.38079916 -38.5625 142.125 C-34.70752884 137.86006621 -31.08405663 133.45214345 -27.53125 128.93359375 C-26 127 -26 127 -25 126 C-22.13732433 125.92674832 -19.299281 125.90761795 -16.4375 125.9375 C-15.63119141 125.94201172 -14.82488281 125.94652344 -13.99414062 125.95117188 C-11.99606244 125.96299482 -9.99802217 125.98093086 -8 126 C-8.71542969 125.79246094 -9.43085937 125.58492187 -10.16796875 125.37109375 C-27.86178965 119.90042985 -41.17891998 111.18538859 -50.09667969 94.79711914 C-54.1500849 87.05118881 -57.14902869 80.14061596 -57.125 71.25 C-57.12757813 70.28578125 -57.13015625 69.3215625 -57.1328125 68.328125 C-57 66 -57 66 -56 65 C-33.14212257 64.83266561 -14.88521153 74.45862422 1 90 C6.66493226 94.94544452 12.11887015 98.94172006 19 102 C18.4225 101.44570313 17.845 100.89140625 17.25 100.3203125 C16.5075 99.59585938 15.765 98.87140625 15 98.125 C14.2575 97.40570313 13.515 96.68640625 12.75 95.9453125 C11 94 11 94 11 92 C23.46800353 86.38725614 34.44469583 84.68680208 48 84 C44.62032819 83.22174908 41.65773207 82.93433083 38.19921875 83.10546875 C23.7356781 83.4455719 23.7356781 83.4455719 19.265625 79.72265625 C17.4375 76.75 17.4375 76.75 15.78515625 73.45703125 C13.75804187 69.53143775 11.378268 66.63903361 8.375 63.4375 C7.8696875 62.89826904 7.364375 62.35903809 6.84375 61.8034668 C-1.84484839 52.79662953 -11.71638329 45.43160685 -23 40 C-23.83402344 39.57332031 -24.66804687 39.14664063 -25.52734375 38.70703125 C-31.08930871 35.9887777 -36.76972971 34.01890571 -42.6875 32.25 C-43.7386499 31.93373657 -43.7386499 31.93373657 -44.81103516 31.61108398 C-53.97168901 28.98313353 -62.97574323 28.78613271 -72.45141602 28.75976562 C-74.53378395 28.75013284 -76.61513118 28.71906617 -78.69726562 28.6875 C-91.23024145 28.58775801 -103.10087947 30.62258305 -115 34.6875 C-116.12390137 35.06986816 -116.12390137 35.06986816 -117.27050781 35.45996094 C-146.4171328 45.78400881 -168.91333818 67.28051041 -182.5234375 94.81030273 C-185.34338079 100.75298868 -187.80171503 106.68390118 -189.484375 113.05859375 C-190.12198328 115.45928554 -191.07852208 117.69630519 -192 120 C-192.36871088 121.65919896 -192.71281674 123.3247643 -193 125 C-197.07650401 120.92349599 -196.06600569 113.2114411 -196.1875 107.6875 C-195.8359689 76.4891153 -180.7011133 48.56650906 -159.02734375 27 C-146.05546067 14.49246839 -129.53787205 3.42661045 -112.3125 -2.23828125 C-109.75581322 -3.03985108 -109.75581322 -3.03985108 -106.4375 -4.5625 C-73.64341657 -18.27638943 -31.76687062 -14.96509046 0 0 Z " fill="#1B3A2C" transform="translate(586,321)"/>
<path d="M0 0 C2.03091861 0.00537862 4.06161711 -0.00000029 6.0925293 -0.00634766 C17.9338479 -0.0144754 29.67894297 0.19826588 41.21557617 3.06787109 C42.76224532 3.43332673 44.30911867 3.79791928 45.85620117 4.16162109 C46.57356445 4.33306641 47.29092773 4.50451172 48.0300293 4.68115234 C50.33037469 5.21503674 52.64138846 5.65112019 54.96557617 6.06787109 C67.05661903 8.45260965 78.73906269 12.06390508 89.96557617 17.13037109 C91.34344276 17.71356272 92.72243492 18.29409927 94.10229492 18.87255859 C114.41862614 27.48698382 132.6315845 39.05578035 148.80541992 54.12255859 C150.83096256 56.00525103 152.91262009 57.78774171 155.02807617 59.56787109 C189.84358476 90.14436566 210.87670239 139.69173785 214.96557617 185.13037109 C215.12111087 188.71771667 215.15288313 192.30167615 215.16870117 195.89208984 C215.17440125 196.91857132 215.18010132 197.9450528 215.18597412 199.00263977 C215.19538732 201.17354313 215.2019434 203.34446054 215.20581055 205.51538086 C215.21541382 208.76296627 215.24643006 212.00988971 215.27807617 215.25732422 C215.53478097 265.65414845 197.27098417 313.14456294 162.38647461 349.64208984 C161.43653542 350.63707769 160.49187751 351.63713372 159.55249023 352.64208984 C145.96501818 367.15280125 129.64571162 377.542134 112.21557617 386.94287109 C111.53060059 387.31621582 110.845625 387.68956055 110.13989258 388.07421875 C108.10434152 389.15088597 106.05244987 390.15708024 103.96557617 391.13037109 C103.22831299 391.48059326 102.4910498 391.83081543 101.73144531 392.19165039 C98.59262411 393.48533326 96.21655461 394.43698345 92.84887695 393.61157227 C90.74981393 392.64780892 88.85194368 391.55627532 86.90307617 390.31787109 C86.22825195 389.92277344 85.55342773 389.52767578 84.8581543 389.12060547 C83.21100942 388.15100955 81.58578532 387.14433598 79.96557617 386.13037109 C82.49766193 383.34078509 85.3678725 381.47413629 88.52807617 379.44287109 C116.82663638 360.70142942 135.26828697 334.24047857 147.96557617 303.13037109 C148.24385254 302.45119629 148.52212891 301.77202148 148.80883789 301.07226562 C166.28825658 257.85369086 170.22050281 205.57251478 159.96557617 160.13037109 C159.67298146 158.68915294 159.38125245 157.24775864 159.09057617 155.80615234 C155.35857609 138.42054514 148.35731684 121.73760426 139.96557617 106.13037109 C139.4525293 105.13908203 138.93948242 104.14779297 138.41088867 103.12646484 C130.5951893 88.27663604 120.38468925 75.35312061 108.96557617 63.13037109 C108.16764648 62.26669922 107.3697168 61.40302734 106.54760742 60.51318359 C87.65575509 40.79249054 61.37081572 24.35849002 34.40307617 18.56787109 C31.07394041 17.84662626 27.82396502 17.08798519 24.55932617 16.11083984 C-16.33412356 4.95403997 -68.59516283 16.3223835 -107.43676758 30.24755859 C-110.03442383 31.13037109 -110.03442383 31.13037109 -112.03442383 31.13037109 C-112.03442383 30.47037109 -112.03442383 29.81037109 -112.03442383 29.13037109 C-77.21591118 9.36851256 -39.9910578 -0.12537893 0 0 Z " fill="#1C3A2C" transform="translate(621.034423828125,259.86962890625)"/>
<path d="M0 0 C1.25151855 0.34490479 1.25151855 0.34490479 2.52832031 0.69677734 C21.89688061 6.08625661 39.78987292 14.78274637 57.80783081 23.54502869 C81.37569065 35.07311043 81.37569065 35.07311043 106 44 C107.43897464 44.51674519 108.87665421 45.03712348 110.3125 45.5625 C114.78018079 47.0488957 119.35048109 48.08153644 123.9375 49.125 C124.67718018 49.29588135 125.41686035 49.4667627 126.17895508 49.64282227 C152.56236502 55.45719624 179.281092 52.26216282 203.80859375 41.3125 C207 40 207 40 210 40 C208.54252491 44.62962676 205.887679 47.77156403 202.625 51.25 C202.09189209 51.82065186 201.55878418 52.39130371 201.00952148 52.97924805 C192.27874519 62.09737478 181.78173083 68.60332211 171 75 C170.26136719 75.49757813 169.52273438 75.99515625 168.76171875 76.5078125 C141.22290074 91.38734359 105.30418577 91.3656164 76 83 C73.59537261 82.10690184 71.33166228 81.08235187 69 80 C67.02369356 79.26311631 65.04449745 78.53393665 63.0625 77.8125 C49.52332448 72.59922743 37.04117961 65.39854006 24.43066406 58.28881836 C15.04819694 53.00426922 5.60656644 47.8662736 -4 43 C-4.72622559 42.63148926 -5.45245117 42.26297852 -6.20068359 41.88330078 C-16.19243524 36.8639911 -26.14514567 32.73368961 -37 30 C-37.75716309 29.80390137 -38.51432617 29.60780273 -39.29443359 29.40576172 C-62.37532053 23.6742034 -88.83570306 23.73538706 -112 29 C-112.71317383 29.1551709 -113.42634766 29.3103418 -114.16113281 29.47021484 C-119.13094094 30.55701417 -124.0669823 31.7582247 -129 33 C-130.53895309 33.3819515 -132.07801727 33.76345571 -133.6171875 34.14453125 C-137.41384802 35.08702873 -141.20762253 36.04042131 -145 37 C-129.24192186 17.69635428 -105.75776103 5.55386511 -82 -1 C-81.34741211 -1.19464844 -80.69482422 -1.38929688 -80.02246094 -1.58984375 C-55.0041273 -8.84290874 -24.76254301 -7.15666781 0 0 Z " fill="#1D3B2D" transform="translate(656,644)"/>
<path d="M0 0 C0.67369629 0.31420898 1.34739258 0.62841797 2.04150391 0.95214844 C13.01755259 6.18344668 22.19715643 12.66337192 31.37426758 20.61035156 C32.80118546 21.83005671 34.27069454 22.99956484 35.74609375 24.16015625 C39.29209041 27.05472198 42.07391844 30.49600212 45 34 C45.63035156 34.7425 46.26070312 35.485 46.91015625 36.25 C58.61913596 50.40320013 73.70158801 71.88874259 73 91 C72.39414062 90.80664062 71.78828125 90.61328125 71.1640625 90.4140625 C65.16157783 88.54867496 59.1841103 87.11840293 53 86 C53 85.34 53 84.68 53 84 C51.65421875 84.00338379 51.65421875 84.00338379 50.28125 84.00683594 C46.91517761 83.98684119 43.55876281 83.91337208 40.19482422 83.8046875 C38.74630319 83.76859532 37.29710021 83.75318992 35.84814453 83.75976562 C23.81468458 83.7929385 23.81468458 83.7929385 19.41259766 79.44360352 C17.39984321 76.37440332 15.68925155 73.25588764 14 70 C4.57205332 57.24797949 -8.79299943 46.83883932 -23 40 C-23.83402344 39.57332031 -24.66804687 39.14664063 -25.52734375 38.70703125 C-31.08930871 35.9887777 -36.76972971 34.01890571 -42.6875 32.25 C-43.7386499 31.93373657 -43.7386499 31.93373657 -44.81103516 31.61108398 C-53.97168901 28.98313353 -62.97574323 28.78613271 -72.45141602 28.75976562 C-74.53378395 28.75013284 -76.61513118 28.71906617 -78.69726562 28.6875 C-91.23024145 28.58775801 -103.10087947 30.62258305 -115 34.6875 C-116.12390137 35.06986816 -116.12390137 35.06986816 -117.27050781 35.45996094 C-146.4171328 45.78400881 -168.91333818 67.28051041 -182.5234375 94.81030273 C-185.34338079 100.75298868 -187.80171503 106.68390118 -189.484375 113.05859375 C-190.12198328 115.45928554 -191.07852208 117.69630519 -192 120 C-192.36871088 121.65919896 -192.71281674 123.3247643 -193 125 C-197.07650401 120.92349599 -196.06600569 113.2114411 -196.1875 107.6875 C-195.8359689 76.4891153 -180.7011133 48.56650906 -159.02734375 27 C-146.05546067 14.49246839 -129.53787205 3.42661045 -112.3125 -2.23828125 C-109.75581322 -3.03985108 -109.75581322 -3.03985108 -106.4375 -4.5625 C-73.64341657 -18.27638943 -31.76687062 -14.96509046 0 0 Z " fill="#B09161" transform="translate(586,321)"/>
<path d="M0 0 C12.06002315 7.83146405 22.02500532 18.37998242 26.18359375 32.41796875 C26.62638672 33.71347656 26.62638672 33.71347656 27.078125 35.03515625 C31.87472564 50.84860678 30.46495064 70.44149339 23.2421875 85.36279297 C21.20975163 88.97435181 18.78878766 92.20579152 16.18359375 95.41796875 C15.42046875 96.49046875 14.65734375 97.56296875 13.87109375 98.66796875 C4.80368585 107.9462466 -6.57680686 113.50276057 -18.81640625 117.41796875 C-17.64207031 117.84207031 -16.46773438 118.26617188 -15.2578125 118.703125 C-7.20121904 121.63241196 0.79269972 124.62848468 8.68359375 127.98046875 C30.72467844 137.20263661 53.20724541 142.93210906 77.02734375 137.171875 C80.06823331 136.4455239 83.09516016 135.89704806 86.18359375 135.41796875 C77.76180313 146.27764613 65.89948318 153.36566529 52.18359375 155.41796875 C35.62442835 156.75012157 18.6483353 154.14768996 3.84887695 146.29736328 C1.90741255 145.27212435 -0.06895935 144.48644926 -2.12890625 143.73046875 C-8.15432332 141.38205309 -13.95022058 138.56405906 -19.77661133 135.7668457 C-38.43518461 126.81745852 -56.50733311 122.74591748 -76.81640625 129.41796875 C-78.67265625 130.00578125 -78.67265625 130.00578125 -80.56640625 130.60546875 C-81.68015625 131.00765625 -81.68015625 131.00765625 -82.81640625 131.41796875 C-80.26125976 124.99481044 -73.00974823 121.24478939 -66.94140625 118.48046875 C-63.81640625 117.41796875 -63.81640625 117.41796875 -59.81640625 117.41796875 C-59.81640625 116.75796875 -59.81640625 116.09796875 -59.81640625 115.41796875 C-60.90953125 115.37671875 -62.00265625 115.33546875 -63.12890625 115.29296875 C-75.24531174 113.73300825 -86.34579564 103.88922946 -93.62890625 94.66796875 C-105.02330088 78.70373741 -106.13075834 61.45307294 -104.81640625 42.41796875 C-104.04196092 38.01331096 -102.82491182 34.39743772 -100.81640625 30.41796875 C-100.39230469 29.495 -99.96820313 28.57203125 -99.53125 27.62109375 C-92.72117272 13.88712174 -80.27832736 1.83152211 -65.81640625 -3.58203125 C-60.54229743 -5.15734529 -55.18391805 -6.37345243 -49.81640625 -7.58203125 C-49.16341553 -7.75782715 -48.5104248 -7.93362305 -47.83764648 -8.11474609 C-32.61347833 -11.63438106 -13.45235164 -7.5771478 0 0 Z M-70.12109375 11.17578125 C-81.59002467 26.3443673 -83.19475371 43.1059518 -82.81640625 61.41796875 C-82.81125 62.23265625 -82.80609375 63.04734375 -82.80078125 63.88671875 C-82.06303818 77.58766141 -73.83688179 94.20287722 -63.81640625 103.41796875 C-55.26750605 109.73942625 -48.17369639 112.8037452 -37.56640625 112.73046875 C-36.72102295 112.7248291 -35.87563965 112.71918945 -35.00463867 112.71337891 C-22.65641354 112.4732382 -14.74536521 108.7276275 -6.19140625 99.85546875 C-1.83935512 94.63102468 0.71521596 88.70628567 3.18359375 82.41796875 C3.80814453 80.86335937 3.80814453 80.86335937 4.4453125 79.27734375 C10.81888144 60.76044871 8.31296559 39.32393814 -0.12890625 21.91796875 C-6.14718386 10.70844957 -14.10246019 3.35027651 -26.00390625 -1.51953125 C-42.41923093 -6.28145426 -58.53253964 -0.95177537 -70.12109375 11.17578125 Z " fill="#1D3C2E" transform="translate(281.81640625,766.58203125)"/>
<path d="M0 0 C0 18.15 0 36.3 0 55 C2.64 53.02 5.28 51.04 8 49 C12.75783349 46.33272971 16.51705418 44.43863567 22 44 C22.73992188 43.93683594 23.47984375 43.87367188 24.2421875 43.80859375 C32.81319948 43.39472869 39.67435549 45.80746876 46.3125 51.25 C53.65623171 58.22358394 57.55867577 66.5456332 58.25 76.65625 C58.49604958 92.03434876 55.18766336 102.33131462 44.59765625 113.69921875 C35.92981161 121.37645258 25.05601375 124.47676927 13.6875 124.33203125 C8.16069952 123.83438502 2.96059933 122.46204652 -2.37109375 120.97265625 C-5.60748668 120.1052054 -8.66347477 119.3094748 -12 119 C-14.69433317 120.87197454 -14.69433317 120.87197454 -17 123 C-17.99 123 -18.98 123 -20 123 C-20.00238835 122.44008677 -20.00477671 121.88017353 -20.00723743 121.30329323 C-20.06632398 107.69144409 -20.1420231 94.07977514 -20.23571491 80.46811867 C-20.28051806 73.88565917 -20.31975211 67.303263 -20.34643555 60.72070312 C-20.37236944 54.37286922 -20.41270099 48.02527772 -20.46318626 41.67759323 C-20.47992229 39.2510313 -20.49139441 36.82442738 -20.49761391 34.3978157 C-20.5071819 31.00925287 -20.53515331 27.62131974 -20.56762695 24.23291016 C-20.56547432 22.71485023 -20.56547432 22.71485023 -20.5632782 21.16612244 C-20.57581635 20.24623032 -20.58835449 19.3263382 -20.60127258 18.37857056 C-20.60818603 17.17563071 -20.60818603 17.17563071 -20.61523914 15.94838905 C-20.80569577 14.98393647 -20.80569577 14.98393647 -21 14 C-23.91765 12.0549 -25.62537285 11.54723683 -29 11 C-28.67 9.35 -28.34 7.7 -28 6 C-24.27349238 4.98990734 -20.54340541 3.99371446 -16.8125 3 C-15.75740234 2.71382812 -14.70230469 2.42765625 -13.61523438 2.1328125 C-12.59365234 1.86210938 -11.57207031 1.59140625 -10.51953125 1.3125 C-9.58214111 1.06113281 -8.64475098 0.80976562 -7.67895508 0.55078125 C-5 0 -5 0 0 0 Z " fill="#1E3C2F" transform="translate(523,759)"/>
<path d="M0 0 C13.86 0 27.72 0 42 0 C42 1.32 42 2.64 42 4 C41.43410156 4.19335938 40.86820313 4.38671875 40.28515625 4.5859375 C39.18494141 4.97652344 39.18494141 4.97652344 38.0625 5.375 C37.33160156 5.63023437 36.60070312 5.88546875 35.84765625 6.1484375 C33.81317884 6.85271413 33.81317884 6.85271413 33 9 C32.88232528 10.4494793 32.82310732 11.90393996 32.79467773 13.35791016 C32.77449585 14.2712915 32.75431396 15.18467285 32.73352051 16.12573242 C32.71704468 17.08713135 32.70056885 18.04853027 32.68359375 19.0390625 C32.66494263 19.92166748 32.6462915 20.80427246 32.6270752 21.71362305 C32.55866735 25.01731148 32.49858903 28.32116813 32.4375 31.625 C32.293125 39.00875 32.14875 46.3925 32 54 C50.48 54 68.96 54 88 54 C88 38.82 88 23.64 88 8 C87.34 8 86.68 8 86 8 C85.505 7.01 85.505 7.01 85 6 C82.6859378 5.26924352 80.35171131 4.59861742 78 4 C78 2.68 78 1.36 78 0 C91.86 0 105.72 0 120 0 C120 1.32 120 2.64 120 4 C118.88625 4.45375 117.7725 4.9075 116.625 5.375 C113.03800992 6.72465986 113.03800992 6.72465986 111 9 C110.80098636 12.07752514 110.72738245 15.06510303 110.74121094 18.14379883 C110.7377063 19.09190933 110.73420166 20.04001984 110.73059082 21.01686096 C110.72175989 24.16365802 110.72762888 27.31023174 110.734375 30.45703125 C110.7330284 32.63937931 110.73108792 34.82172707 110.72857666 37.0040741 C110.72562327 41.58485766 110.7299287 46.16556336 110.73925781 50.74633789 C110.75063222 56.61766442 110.74410694 62.4888077 110.73211288 68.36012745 C110.72488283 72.8699837 110.72718785 77.37979659 110.73236847 81.88965416 C110.73370284 84.05419626 110.73206467 86.2187423 110.72740936 88.3832798 C110.72232766 91.41163156 110.73007861 94.4396878 110.74121094 97.46801758 C110.73716248 98.36327148 110.73311401 99.25852539 110.72894287 100.1809082 C110.75852226 104.52667489 110.84306866 108.09646315 113 112 C114.68046157 113.21526985 114.68046157 113.21526985 116.625 113.8125 C117.73875 114.204375 118.8525 114.59625 120 115 C120 116.32 120 117.64 120 119 C106.14 119 92.28 119 78 119 C78 117.68 78 116.36 78 115 C78.56589844 114.81824219 79.13179687 114.63648438 79.71484375 114.44921875 C80.44832031 114.19785156 81.18179688 113.94648437 81.9375 113.6875 C82.66839844 113.44386719 83.39929688 113.20023438 84.15234375 112.94921875 C86.35932024 112.08759559 86.35932024 112.08759559 87 109 C87.11425138 107.45102275 87.17617915 105.89788234 87.20532227 104.3449707 C87.22550415 103.39110474 87.24568604 102.43723877 87.26647949 101.45446777 C87.28295532 100.45500122 87.29943115 99.45553467 87.31640625 98.42578125 C87.33505737 97.50486694 87.3537085 96.58395264 87.3729248 95.63513184 C87.44123409 92.19435235 87.50137541 88.75341462 87.5625 85.3125 C87.706875 77.619375 87.85125 69.92625 88 62 C69.52 62 51.04 62 32 62 C32.12375 69.858125 32.2475 77.71625 32.375 85.8125 C32.40899902 88.29112549 32.44299805 90.76975098 32.47802734 93.32348633 C32.51322768 95.28468193 32.54914831 97.2458648 32.5859375 99.20703125 C32.60297729 100.73861877 32.60297729 100.73861877 32.62036133 102.30114746 C32.64042236 103.27531616 32.6604834 104.24948486 32.68115234 105.25317383 C32.69447601 106.09922684 32.70779968 106.94527985 32.7215271 107.81697083 C32.87258289 110.29091009 32.87258289 110.29091009 35 113 C38.55672179 114.2188121 38.55672179 114.2188121 42 115 C42 116.32 42 117.64 42 119 C28.14 119 14.28 119 0 119 C0 117.68 0 116.36 0 115 C0.56589844 114.81824219 1.13179687 114.63648438 1.71484375 114.44921875 C2.44832031 114.19785156 3.18179688 113.94648437 3.9375 113.6875 C4.66839844 113.44386719 5.39929688 113.20023438 6.15234375 112.94921875 C8.35932024 112.08759559 8.35932024 112.08759559 9 109 C9.09820326 107.61087942 9.14338775 106.21762103 9.15390015 104.82507324 C9.16250061 103.97545517 9.17110107 103.1258371 9.17996216 102.25047302 C9.18635208 100.85708458 9.18635208 100.85708458 9.19287109 99.43554688 C9.20513733 97.96445213 9.20513733 97.96445213 9.21765137 96.46363831 C9.24248439 93.21534844 9.25901206 89.96710207 9.2734375 86.71875 C9.27876118 85.61095688 9.28408485 84.50316376 9.28956985 83.36180115 C9.31628655 77.50341483 9.33567014 71.64504977 9.35009766 65.78662109 C9.36678294 59.72324994 9.41159764 53.66041837 9.4624691 47.59725189 C9.49603923 42.94422749 9.50766357 38.29133314 9.51332474 33.63819885 C9.5200607 31.40218459 9.53534303 29.16617957 9.55921555 26.93028259 C9.59066316 23.80788365 9.59093496 20.68696734 9.58349609 17.56445312 C9.59990143 16.6355275 9.61630676 15.70660187 9.63320923 14.74952698 C9.61013042 12.39234518 9.5547601 10.29088581 9 8 C6.21184159 5.60481402 3.58975561 4.66476956 0 4 C0 2.68 0 1.36 0 0 Z " fill="#B29466" transform="translate(825,762)"/>
<path d="M0 0 C4.30244863 3.78988255 8.60274827 8.46386947 9.26501465 14.35902405 C9.27595154 15.6644944 9.27595154 15.6644944 9.28710938 16.99633789 C9.30052368 17.98739029 9.31393799 18.97844269 9.32775879 19.99952698 C9.33567444 21.59497597 9.33567444 21.59497597 9.34375 23.22265625 C9.3583728 24.31968369 9.37299561 25.41671112 9.38806152 26.54698181 C9.45035295 31.24157186 9.48998379 35.93629315 9.53173828 40.63110352 C9.56541738 44.05759606 9.61053868 47.48380659 9.65625 50.91015625 C9.66416565 52.50864159 9.66416565 52.50864159 9.67224121 54.13941956 C9.68565552 55.12731979 9.69906982 56.11522003 9.71289062 57.13305664 C9.72382751 58.4373336 9.72382751 58.4373336 9.73498535 59.76795959 C9.86304978 62.28503134 9.86304978 62.28503134 12 65 C14.20725073 65.36362818 14.20725073 65.36362818 16.625 65.1875 C17.44226562 65.16042969 18.25953125 65.13335938 19.1015625 65.10546875 C20.04128906 65.05326172 20.04128906 65.05326172 21 65 C20.6414456 67.754893 20.22678745 68.79992099 18.109375 70.66796875 C17.33078125 71.16941406 16.5521875 71.67085937 15.75 72.1875 C14.98171875 72.69667969 14.2134375 73.20585938 13.421875 73.73046875 C8.80927924 76.14836169 4.14550418 76.36753601 -1 76 C-5.15856846 74.20425453 -7.06460608 72.07451352 -9 68 C-9 67.01 -9 66.02 -9 65 C-9.90878906 65.68835938 -9.90878906 65.68835938 -10.8359375 66.390625 C-20.69214414 73.60840094 -29.49536801 77.85253807 -42 76 C-48.13328722 73.62833268 -52.14599782 69.42990403 -55.25 63.6875 C-56.60007185 58.84974254 -56.54032177 54.72902967 -55.0625 50 C-45.06492559 35.45807358 -27.09681208 32.16710141 -11 28 C-10.94548286 25.95863605 -10.90697515 23.91684144 -10.875 21.875 C-10.85179687 20.73804688 -10.82859375 19.60109375 -10.8046875 18.4296875 C-11.10167426 13.21460002 -12.4104866 8.86562981 -16 5 C-19.02644884 2.75818604 -22.30138088 2.44515802 -26.03515625 2.5703125 C-28.83999893 3.18369758 -30.40205479 4.7166477 -32.05078125 7.01171875 C-33.53922403 10.12948573 -33.9649273 13.31736541 -34.34765625 16.73046875 C-35.2050253 19.7132916 -36.32549319 20.49827158 -39 22 C-41.75829361 22.64647506 -44.23230955 22.60117866 -47 22 C-49.96341004 19.48110147 -50.8341401 17.86615726 -51.5625 14.0625 C-50.62008275 8.93156162 -47.85895576 6.37415614 -43.828125 3.39453125 C-31.0896218 -4.82058626 -13.67590345 -7.9665457 0 0 Z " fill="#B19366" transform="translate(1008,807)"/>
<path d="M0 0 C8.21111583 -0.32717814 15.98448846 0.55264762 22.4609375 6.02734375 C28.95149976 13.0274956 29.58339376 19.69788336 29.6328125 28.91796875 C29.6474353 29.94320648 29.66205811 30.96844421 29.67712402 32.02474976 C29.73920985 36.39593346 29.77903974 40.76725432 29.82080078 45.13867188 C29.85452279 48.33608791 29.89962517 51.53320495 29.9453125 54.73046875 C29.95322815 56.21336899 29.95322815 56.21336899 29.96130371 57.72622681 C29.97471802 58.64753387 29.98813232 59.56884094 30.00195312 60.51806641 C30.01289001 61.73002182 30.01289001 61.73002182 30.02404785 62.96646118 C30.3160068 65.41761858 31.06588349 67.06414666 32.2890625 69.19140625 C34.9290625 69.19140625 37.5690625 69.19140625 40.2890625 69.19140625 C40.2890625 70.51140625 40.2890625 71.83140625 40.2890625 73.19140625 C38.4609375 74.859375 38.4609375 74.859375 36.0390625 76.37890625 C35.25015625 76.88808594 34.46125 77.39726563 33.6484375 77.921875 C29.12132578 80.35782088 24.38516394 80.88990664 19.2890625 80.19140625 C14.3534232 77.7235866 12.01708734 74.80806367 9.2890625 70.19140625 C8.67160156 70.66191406 8.05414062 71.13242187 7.41796875 71.6171875 C-0.91850967 77.74583146 -8.21608036 81.26977689 -18.7109375 80.19140625 C-24.32968199 79.14384372 -27.70639859 77.2869574 -31.7109375 73.19140625 C-35.11286192 67.52153221 -35.84797179 61.72230569 -34.7109375 55.19140625 C-30.18755368 45.3990259 -20.51249398 41.86988844 -11.01416016 38.36425781 C-4.33594034 35.97973592 2.43691197 34.01150873 9.2890625 32.19140625 C9.77669384 21.29961743 9.77669384 21.29961743 6.2890625 11.19140625 C2.58478412 7.59937873 -1.49870604 7.83771839 -6.40625 7.79296875 C-8.72569664 8.03266142 -8.72569664 8.03266142 -10.421875 9.33984375 C-12.171607 11.85309517 -12.59528857 14.20111146 -13.2109375 17.19140625 C-14.62796182 24.07409581 -14.62796182 24.07409581 -17.7109375 26.19140625 C-20.77999198 26.86965033 -23.62803765 26.77465757 -26.7109375 26.19140625 C-29.3359375 24.12890625 -29.3359375 24.12890625 -30.7109375 21.19140625 C-30.78888134 16.82655137 -30.27416887 14.86415483 -27.4609375 11.50390625 C-26.0996875 10.35921875 -26.0996875 10.35921875 -24.7109375 9.19140625 C-23.9890625 8.51078125 -23.2671875 7.83015625 -22.5234375 7.12890625 C-15.61560048 2.37017408 -8.27038774 0.58393228 0 0 Z " fill="#1E3C2E" transform="translate(624.7109375,802.80859375)"/>
<path d="M0 0 C0 3.96 0 7.92 0 12 C1.35931641 10.96939453 1.35931641 10.96939453 2.74609375 9.91796875 C13.23779917 2.09467396 21.43686975 -2.55613489 35 -1 C41.21907515 0.46948611 45.66281599 2.90381391 49.74609375 7.828125 C53.92457616 15.06562102 54.43005934 21.38342587 54.40625 29.578125 C54.41708618 30.66712097 54.42792236 31.75611694 54.43908691 32.87811279 C54.48478183 37.51049686 54.49647298 42.14282137 54.51123047 46.77539062 C54.52689384 50.16817282 54.55987208 53.56048381 54.59375 56.953125 C54.59072876 58.00107239 54.58770752 59.04901978 54.58459473 60.12872314 C54.59470581 61.10363708 54.60481689 62.07855103 54.61523438 63.08300781 C54.61728882 63.93824036 54.61934326 64.7934729 54.62145996 65.67462158 C55.08699747 68.53442707 56.02227834 69.90721597 58 72 C60.59855733 72.8042208 60.59855733 72.8042208 63 73 C63 74.32 63 75.64 63 77 C50.46 77 37.92 77 25 77 C25 75.68 25 74.36 25 73 C26.134375 72.525625 27.26875 72.05125 28.4375 71.5625 C31.75740166 70.36377917 31.75740166 70.36377917 33 69 C33.11395949 67.49770793 33.15955778 65.99014977 33.17700195 64.48364258 C33.18983719 63.52206741 33.20267242 62.56049225 33.21589661 61.56977844 C33.22328354 60.52194687 33.23067047 59.4741153 33.23828125 58.39453125 C33.246353 57.32257004 33.25442474 56.25060883 33.26274109 55.14616394 C33.2766036 52.87048978 33.287316 50.59479464 33.29516602 48.3190918 C33.31234189 44.84448474 33.35620524 41.37083794 33.40039062 37.89648438 C33.41052029 35.68750701 33.41903553 33.47852154 33.42578125 31.26953125 C33.44328934 30.23182083 33.46079742 29.19411041 33.47883606 28.12495422 C33.46081537 22.10483408 33.0896604 18.54187142 29 14 C23.80696025 10.94527073 18.8999436 10.06896259 13 11 C9.3357994 12.29999465 6.13438167 13.84071726 3.3984375 16.63671875 C2 18 2 18 0 18 C0.04160867 25.0479574 0.11387524 32.09512124 0.20751953 39.14257812 C0.23575465 41.5402917 0.25695646 43.93809879 0.27099609 46.3359375 C0.29238972 49.78173797 0.3390238 53.22641095 0.390625 56.671875 C0.39185364 57.74491882 0.39308228 58.81796265 0.39434814 59.92352295 C0.41406677 60.92425842 0.4337854 61.9249939 0.45410156 62.95605469 C0.46298401 63.83541687 0.47186646 64.71477905 0.48101807 65.62078857 C1.16775939 68.76907313 2.54439713 69.98140095 5 72 C7.1381966 72.7872678 7.1381966 72.7872678 9 73 C9 74.32 9 75.64 9 77 C-3.54 77 -16.08 77 -29 77 C-29 75.68 -29 74.36 -29 73 C-25.04 72.01 -25.04 72.01 -21 71 C-20.22557922 67.55364264 -19.86235592 64.34387509 -19.82299805 60.81420898 C-19.81016281 59.80643906 -19.79732758 58.79866913 -19.78410339 57.76036072 C-19.77671646 56.68315262 -19.76932953 55.60594452 -19.76171875 54.49609375 C-19.753647 53.38065689 -19.74557526 52.26522003 -19.73725891 51.11598206 C-19.72345159 48.76166322 -19.71271451 46.40732465 -19.70483398 44.05297852 C-19.68754578 40.44704835 -19.64362018 36.84201762 -19.59960938 33.23632812 C-19.58948834 30.9479234 -19.5809704 28.6595109 -19.57421875 26.37109375 C-19.55671066 25.29186142 -19.53920258 24.21262909 -19.52116394 23.10069275 C-19.52408951 22.09607498 -19.52701508 21.09145721 -19.5300293 20.05639648 C-19.52416306 19.17435043 -19.51829681 18.29230438 -19.51225281 17.38352966 C-20.16317755 14.20258172 -21.50790056 13.01327756 -24 11 C-26.64184541 10.20318682 -26.64184541 10.20318682 -29 10 C-29 8.68 -29 7.36 -29 6 C-25.10968907 4.79386497 -21.21204317 3.61341049 -17.3125 2.4375 C-16.20970703 2.09525391 -15.10691406 1.75300781 -13.97070312 1.40039062 C-12.90400391 1.08134766 -11.83730469 0.76230469 -10.73828125 0.43359375 C-9.75899658 0.13509521 -8.77971191 -0.16340332 -7.77075195 -0.47094727 C-5 -1 -5 -1 0 0 Z " fill="#1D3B2E" transform="translate(702,804)"/>
<path d="M0 0 C0.00879936 0.98479591 0.00879936 0.98479591 0.01777649 1.98948669 C0.0819476 8.85223657 0.16642789 15.71452777 0.26245117 22.5769043 C0.29560736 25.13445978 0.32366795 27.6920868 0.34643555 30.24975586 C0.38015215 33.93634386 0.43247855 37.62228179 0.48828125 41.30859375 C0.49467117 42.44332626 0.5010611 43.57805878 0.50764465 44.74717712 C0.64623213 52.31181107 0.9262918 59.84747877 6.4375 65.5 C11.03689195 68.19232699 15.70016396 68.82922605 21 68 C25.41261339 66.2710813 29.62742657 64.37257343 33 61 C33.31898204 58.96189532 33.31898204 58.96189532 33.29052734 56.59790039 C33.30328705 55.68677994 33.31604675 54.77565948 33.32919312 53.83692932 C33.33141876 52.85046921 33.33364441 51.86400909 33.3359375 50.84765625 C33.3425943 49.8365831 33.3492511 48.82550995 33.35610962 47.78379822 C33.36624713 45.64274926 33.3709263 43.50166864 33.37060547 41.3605957 C33.37497793 38.07906204 33.4112847 34.79887355 33.44921875 31.51757812 C33.45508671 29.44010878 33.45905624 27.36263303 33.4609375 25.28515625 C33.47530853 24.30072037 33.48967957 23.31628448 33.50448608 22.30201721 C33.49833282 21.3877446 33.49217957 20.47347198 33.48583984 19.53149414 C33.48868988 18.72700333 33.49153992 17.92251251 33.49447632 17.09364319 C33.16719472 14.83315532 33.16719472 14.83315532 31.14151001 13.29100037 C28.83300462 11.89932753 26.53250277 10.91451489 24 10 C24.33 8.68 24.66 7.36 25 6 C29.0796442 4.96402033 33.16418941 3.94886146 37.25 2.9375 C38.40886719 2.64294922 39.56773437 2.34839844 40.76171875 2.04492188 C42.43427734 1.6340332 42.43427734 1.6340332 44.140625 1.21484375 C45.68024902 0.82993774 45.68024902 0.82993774 47.25097656 0.43725586 C49.99210699 0.00125545 51.39352531 0.24817916 54 1 C54.00808685 1.8224118 54.01617371 2.64482361 54.02450562 3.49215698 C54.10235881 11.23236822 54.18962089 18.97238842 54.28752708 26.71236992 C54.33753106 30.69183727 54.38386047 34.67127753 54.421875 38.65087891 C54.45867637 42.48946882 54.50502175 46.3278344 54.55806351 50.16623306 C54.57663497 51.63265178 54.59173272 53.09911863 54.60334396 54.56560898 C54.62015988 56.61542621 54.64918198 58.66472656 54.68115234 60.71435547 C54.69447601 61.88239716 54.70779968 63.05043884 54.7215271 64.25387573 C54.72226567 67.14370572 54.72226567 67.14370572 57 69 C58.98821313 69.39764263 60.98944339 69.73775349 63 70 C63 71.32 63 72.64 63 74 C59.81400604 74.81848252 56.6259612 75.62868699 53.4375 76.4375 C52.54224609 76.66759766 51.64699219 76.89769531 50.72460938 77.13476562 C40.74511859 79.6570545 40.74511859 79.6570545 36 80 C33.50494038 77.50494038 33.64051624 76.32671112 33.375 72.875 C33.30023438 71.96492187 33.22546875 71.05484375 33.1484375 70.1171875 C33.09945312 69.41851563 33.05046875 68.71984375 33 68 C32.27554688 68.54269531 31.55109375 69.08539062 30.8046875 69.64453125 C29.83789062 70.35996094 28.87109375 71.07539062 27.875 71.8125 C26.92367187 72.52019531 25.97234375 73.22789062 24.9921875 73.95703125 C16.87729676 79.49761592 9.67257206 80.73462573 0 80 C-6.07431043 78.75344586 -10.9733402 75.6880926 -15 71 C-18.75596509 64.1612191 -19.57043732 57.7514617 -19.50390625 50.06640625 C-19.51332748 49.06665268 -19.52274872 48.06689911 -19.53245544 47.03684998 C-19.56088439 43.87851911 -19.56418965 40.72094793 -19.5625 37.5625 C-19.56610676 34.37917091 -19.57556796 31.19638338 -19.60325623 28.01316833 C-19.62006535 26.04112149 -19.62290412 24.06889487 -19.61024475 22.09681702 C-19.61712814 21.20836594 -19.62401154 20.31991486 -19.63110352 19.40454102 C-19.62966087 18.23399925 -19.62966087 18.23399925 -19.62818909 17.03981018 C-20.09937959 14.45478872 -20.9402984 13.58735029 -23 12 C-25.60611077 11.27802838 -25.60611077 11.27802838 -28 11 C-28 9.35 -28 7.7 -28 6 C-27.37432129 5.85377197 -26.74864258 5.70754395 -26.10400391 5.55688477 C-23.27705709 4.89467208 -20.45102513 4.2286345 -17.625 3.5625 C-16.64015625 3.33240234 -15.6553125 3.10230469 -14.640625 2.86523438 C-13.69960938 2.64287109 -12.75859375 2.42050781 -11.7890625 2.19140625 C-10.91975098 1.98717041 -10.05043945 1.78293457 -9.15478516 1.57250977 C-2.94459647 -0.07748938 -2.94459647 -0.07748938 0 0 Z " fill="#1E3C2F" transform="translate(352,803)"/>
<path d="M0 0 C0 7.26 0 14.52 0 22 C7.59 22 15.18 22 23 22 C22.67 24.31 22.34 26.62 22 29 C14.74 29 7.48 29 0 29 C0.05113826 35.97525895 0.11420513 42.94832149 0.20751953 49.92285156 C0.23566889 52.29322156 0.25691329 54.66368438 0.27099609 57.03417969 C0.29250851 60.45035106 0.33920394 63.86541355 0.390625 67.28125 C0.39185364 68.33364868 0.39308228 69.38604736 0.39434814 70.47033691 C0.52374151 77.03516687 1.41079878 81.43926571 5 87 C10.64409459 88.88136486 17.26944418 88.52814822 23 87 C22.14657171 92.06586281 19.00714904 94.12162534 15 97 C8.91291739 100.58063683 2.88682209 100.81506272 -4 100 C-9.88506476 98.28674924 -13.57051199 95.09523932 -17 90 C-20.24481343 83.12367792 -20.39728444 77.1571697 -20.29296875 69.625 C-20.28872391 68.4599292 -20.28447906 67.2948584 -20.28010559 66.09448242 C-20.2633965 62.39608035 -20.22575761 58.69823566 -20.1875 55 C-20.17244317 52.48308082 -20.15875652 49.96615305 -20.14648438 47.44921875 C-20.11351826 41.29926645 -20.06178879 35.14972753 -20 29 C-23.63 29 -27.26 29 -31 29 C-30 25 -30 25 -27.9609375 23.6484375 C-26.68089844 23.01808594 -26.68089844 23.01808594 -25.375 22.375 C-18.18641067 18.31858173 -14.59568865 12.2367011 -11 5 C-9 2 -9 2 -5.375 0.5625 C-2 0 -2 0 0 0 Z " fill="#B29467" transform="translate(1060,783)"/>
<path d="M0 0 C0 4.95 0 9.9 0 15 C0.66 15 1.32 15 2 15 C2.185625 14.319375 2.37125 13.63875 2.5625 12.9375 C5.33501923 7.27191723 10.4477297 2.57322509 16.046875 -0.33984375 C21.42399724 -2.15731107 26.37884198 -1.65415148 31.5625 0.4375 C34.52876116 3.55587711 35.02713927 5.52176237 35.25 9.7421875 C34.81711711 13.65166106 32.71728151 16.28271849 30 19 C23.04595096 19.70719143 23.04595096 19.70719143 20.34765625 17.8828125 C19.86167969 17.42648437 19.37570312 16.97015625 18.875 16.5 C16.23885621 13.81476891 16.23885621 13.81476891 13.0625 13.3125 C8.70491777 14.29073274 5.85899197 16.60310491 3 20 C0.48406106 24.71560146 0.6938266 29.32678611 0.69921875 34.53515625 C0.69493362 35.4508287 0.6906485 36.36650116 0.68623352 37.30992126 C0.68050407 39.24054133 0.67997973 41.17118297 0.68432617 43.10180664 C0.6874929 46.05587418 0.66398648 49.00894629 0.63867188 51.96289062 C0.63639943 53.84114457 0.63569513 55.71940121 0.63671875 57.59765625 C0.627509 58.48002457 0.61829926 59.36239288 0.60881042 60.27149963 C0.62996729 65.10893236 0.62996729 65.10893236 2.39501953 69.53588867 C4.3055816 71.2787607 5.66301639 71.75338027 8.1875 72.25 C10.0746875 72.62125 10.0746875 72.62125 12 73 C12 74.32 12 75.64 12 77 C-1.53 77 -15.06 77 -29 77 C-29 75.68 -29 74.36 -29 73 C-27.88625 72.773125 -26.7725 72.54625 -25.625 72.3125 C-21.89908383 71.42101955 -21.89908383 71.42101955 -20.78961182 68.72961426 C-20.00260075 66.00899054 -19.7465316 63.83685827 -19.74121094 61.01367188 C-19.73490662 60.04917114 -19.72860229 59.08467041 -19.72210693 58.09094238 C-19.7261554 57.0606189 -19.73020386 56.03029541 -19.734375 54.96875 C-19.73246155 53.9000769 -19.7305481 52.83140381 -19.72857666 51.73034668 C-19.72721768 49.47436283 -19.73089403 47.21837109 -19.73925781 44.96240234 C-19.74996117 41.51251635 -19.73935255 38.06315108 -19.7265625 34.61328125 C-19.72788415 32.41926969 -19.73044664 30.22525845 -19.734375 28.03125 C-19.73032654 27.00092651 -19.72627808 25.97060303 -19.72210693 24.90905762 C-19.72841125 23.94455688 -19.73471558 22.98005615 -19.74121094 21.98632812 C-19.74280212 21.14203247 -19.74439331 20.29773682 -19.74603271 19.42785645 C-20.04285791 16.59029033 -20.65659268 14.51989639 -22 12 C-25.53514293 10.62032476 -25.53514293 10.62032476 -29 10 C-28.67 8.35 -28.34 6.7 -28 5 C-24.08724073 3.96377062 -20.16929224 2.94871327 -16.25 1.9375 C-15.13882812 1.64294922 -14.02765625 1.34839844 -12.8828125 1.04492188 C-11.81289063 0.77099609 -10.74296875 0.49707031 -9.640625 0.21484375 C-8.65610352 -0.04176025 -7.67158203 -0.29836426 -6.65722656 -0.56274414 C-4 -1 -4 -1 0 0 Z " fill="#1B392B" transform="translate(455,804)"/>
<path d="M0 0 C6.02432206 3.43093719 9.14188776 8.87296524 11.33203125 15.328125 C13.49057982 27.96242678 14.20218301 42.87883392 6.51953125 53.828125 C3.01726677 57.91836089 0.09234861 60.88366712 -5.43359375 61.7734375 C-11.94320175 62.14962088 -16.01557576 61.31624562 -21.046875 57.12890625 C-25.93957345 51.69388459 -26.19550637 47.08154641 -26.3125 40.0234375 C-26.33197189 39.02609589 -26.35144379 38.02875427 -26.37150574 37.00119019 C-26.40416641 34.89495254 -26.42799912 32.78856196 -26.44360352 30.68212891 C-26.4802892 27.46885143 -26.58624052 24.26237688 -26.69335938 21.05078125 C-26.95983875 6.12493985 -26.95983875 6.12493985 -23.52490234 1.34741211 C-15.5343918 -4.43003677 -8.7038806 -3.79708462 0 0 Z " fill="#F8F9F8" transform="translate(548.66796875,815.671875)"/>
<path d="M0 0 C0.01030746 0.81574997 0.02061493 1.63149994 0.03123474 2.4719696 C0.12929228 10.16702601 0.23181832 17.86200387 0.33933926 25.5569334 C0.39445718 29.51278155 0.44785903 33.46863723 0.49731445 37.42456055 C0.54512264 41.24363761 0.59747072 45.06262814 0.65294075 48.88160133 C0.67328995 50.33718518 0.69201499 51.79279268 0.70907402 53.24841881 C0.73328345 55.29029237 0.76331417 57.33200479 0.79467773 59.3737793 C0.81799416 61.11584908 0.81799416 61.11584908 0.84178162 62.89311218 C0.98497324 65.70492395 1.36085643 68.26343575 2 71 C4.64 71.66 7.28 72.32 10 73 C10 74.32 10 75.64 10 77 C-2.87 77 -15.74 77 -29 77 C-29 75.68 -29 74.36 -29 73 C-28.05125 72.71125 -27.1025 72.4225 -26.125 72.125 C-22.94788422 71.23174891 -22.94788422 71.23174891 -21 69 C-20.00602442 66.05289258 -19.86897165 63.31400225 -19.85473633 60.21899414 C-19.84835648 59.27443863 -19.84197662 58.32988312 -19.83540344 57.35670471 C-19.83429062 56.34309372 -19.8331778 55.32948273 -19.83203125 54.28515625 C-19.82870285 53.23726425 -19.82537445 52.18937225 -19.82194519 51.10972595 C-19.8168855 48.89485106 -19.81453657 46.67996856 -19.81469727 44.46508789 C-19.81251053 41.07881104 -19.7943438 37.69285986 -19.77539062 34.30664062 C-19.77245656 32.15364695 -19.77047185 30.00065172 -19.76953125 27.84765625 C-19.76234573 26.83606949 -19.75516022 25.82448273 -19.74775696 24.78224182 C-19.75083359 23.83453415 -19.75391022 22.88682648 -19.75708008 21.91040039 C-19.75565506 21.08085342 -19.75423004 20.25130646 -19.75276184 19.3966217 C-20.03901959 16.62176068 -20.79031674 14.50701886 -22 12 C-23.68046157 10.78473015 -23.68046157 10.78473015 -25.625 10.1875 C-26.73875 9.795625 -27.8525 9.40375 -29 9 C-28.67 7.68 -28.34 6.36 -28 5 C-23.89904362 3.965962 -19.79381103 2.9500458 -15.6875 1.9375 C-13.93663086 1.49567383 -13.93663086 1.49567383 -12.15039062 1.04492188 C-11.03212891 0.77099609 -9.91386719 0.49707031 -8.76171875 0.21484375 C-7.73006592 -0.04176025 -6.69841309 -0.29836426 -5.63549805 -0.56274414 C-3 -1 -3 -1 0 0 Z " fill="#1A3A2C" transform="translate(802,804)"/>
<path d="M0 0 C-0.33 1.32 -0.66 2.64 -1 4 C0.98 3.67 2.96 3.34 5 3 C5.11633933 7.22893468 5.18729952 11.45745674 5.25 15.6875 C5.30027344 17.48477539 5.30027344 17.48477539 5.3515625 19.31835938 C5.36445312 20.47529297 5.37734375 21.63222656 5.390625 22.82421875 C5.41157227 23.88729248 5.43251953 24.95036621 5.45410156 26.0456543 C4.89498057 29.68324735 3.48001889 31.34620816 1 34 C1.99 34.33 2.98 34.66 4 35 C-1.25815072 41.13450917 -8.95954956 45.51989026 -17.11328125 46.16796875 C-23.6362198 46.22589893 -28.70078906 45.54754583 -34.25 41.8125 C-38.88378515 37.07340155 -40.16040246 33.0228672 -40.5625 26.5625 C-40.37231474 20.53445417 -38.3327073 17.08887529 -34 13 C-26.23594838 6.32366576 -10.16327142 0 0 0 Z " fill="#1F3D2F" transform="translate(630,837)"/>
<path d="M0 0 C-0.99 0 -1.98 0 -3 0 C-2.505 1.485 -2.505 1.485 -2 3 C-1.01 3.33 -0.02 3.66 1 4 C1 12.58 1 21.16 1 30 C-6.875 34.5 -6.875 34.5 -10 36 C-9.01 37.65 -8.02 39.3 -7 41 C-15.05096637 45.79961457 -21.48889113 47.01133655 -31 46 C-37.1329146 43.67969793 -41.16109296 39.40197802 -44.25 33.6875 C-45.60007185 28.84974254 -45.54032177 24.72902967 -44.0625 20 C-37.52101655 10.48511498 -28.59357148 6.51108718 -18 3 C-17.01966797 2.67443115 -17.01966797 2.67443115 -16.01953125 2.34228516 C-4.100756 -1.5265588 -4.100756 -1.5265588 0 0 Z " fill="#B39669" transform="translate(997,837)"/>
<path d="M0 0 C0 8.58 0 17.16 0 26 C-9.01503194 31.15144682 -9.01503194 31.15144682 -13.875 31.1875 C-15.17050781 31.20876953 -15.17050781 31.20876953 -16.4921875 31.23046875 C-20.19518234 30.89016237 -22.2705649 29.80758886 -24.75 27.0625 C-26.65428276 22.39700724 -26.66677629 17.96710873 -26 13 C-21.68907984 5.20718279 -13.95891723 3.14338925 -5.92578125 0.734375 C-3 0 -3 0 0 0 Z " fill="#FBFAF8" transform="translate(998,841)"/>
<path d="M0 0 C0.17449702 4.22864445 0.28092495 8.45636251 0.375 12.6875 C0.45041016 14.48477539 0.45041016 14.48477539 0.52734375 16.31835938 C0.6720612 24.97728682 0.6720612 24.97728682 -1.25683594 27.91259766 C-6.12005938 32.09160135 -11.21117825 32.3917398 -17.328125 32.359375 C-20 32 -20 32 -23.125 29.625 C-26.14375449 25.39874372 -26.50840685 22.12243879 -26 17 C-24.13826842 11.52431887 -20.86429395 7.98418033 -16 5 C-4.24146982 0 -4.24146982 0 0 0 Z " fill="#F6F7F6" transform="translate(635,840)"/>
<path d="M0 0 C2.96626116 3.11837711 3.46463927 5.08426237 3.6875 9.3046875 C3.25461711 13.21416106 1.15478151 15.84521849 -1.5625 18.5625 C-8.51654904 19.26969143 -8.51654904 19.26969143 -11.21484375 17.4453125 C-11.70082031 16.98898437 -12.18679688 16.53265625 -12.6875 16.0625 C-15.32226412 13.34571457 -15.32226412 13.34571457 -18.5625 13 C-22.29173885 13.69923228 -24.56886994 15.281639 -27.5625 17.5625 C-27.8925 16.5725 -28.2225 15.5825 -28.5625 14.5625 C-27.9025 14.5625 -27.2425 14.5625 -26.5625 14.5625 C-26.5625 13.9025 -26.5625 13.2425 -26.5625 12.5625 C-27.2225 12.2325 -27.8825 11.9025 -28.5625 11.5625 C-20.82231856 1.814709 -12.82635971 -5.17554866 0 0 Z " fill="#203F32" transform="translate(486.5625,804.4375)"/>
<path d="M0 0 C3.22618733 2.0790985 4.8669302 3.80039529 7 7 C7.47364652 11.81540624 7.49199653 14.05114955 5.25 18.375 C2.0220747 22.14091285 0.49173061 22.86438813 -4.4375 23.3125 C-9.32530912 22.88374481 -11.65865598 21.52018989 -14.875 17.875 C-16.49919624 13.72427628 -16.2783149 10.25078208 -15 6 C-10.65226798 0.50812798 -6.89551611 -0.59444104 0 0 Z " fill="#1D3B2E" transform="translate(796,764)"/>
<path d="M0 0 C0.81702393 -0.00515625 1.63404785 -0.0103125 2.47583008 -0.015625 C9.81630756 0.06998715 9.81630756 0.06998715 12.875 2.3125 C13.37 3.3025 13.37 3.3025 13.875 4.3125 C12.24087557 6.02090281 11.00593906 7.24703047 8.875 8.3125 C8.05708984 8.10367188 8.05708984 8.10367188 7.22265625 7.890625 C-2.26904363 5.55323468 -13.07837059 7.09251326 -22.125 10.3125 C-22.269375 9.52875 -22.41375 8.745 -22.5625 7.9375 C-23.00298925 5.34828982 -23.00298925 5.34828982 -24.125 3.3125 C-15.99919496 1.0855257 -8.39982877 0.0129166 0 0 Z " fill="#28463A" transform="translate(246.125,757.6875)"/>
<path d="M0 0 C1.98 0.99 1.98 0.99 4 2 C4 18.83 4 35.66 4 53 C3.01 52.34 2.02 51.68 1 51 C0.60127258 48.82333374 0.60127258 48.82333374 0.56762695 46.09130859 C0.54783279 45.07040131 0.52803864 44.04949402 0.50764465 42.99765015 C0.50125473 41.89240997 0.49486481 40.7871698 0.48828125 39.6484375 C0.47033005 38.5192691 0.45237885 37.39010071 0.43388367 36.22671509 C0.37957112 32.60951507 0.34581734 28.99244854 0.3125 25.375 C0.27934548 22.92706467 0.2448576 20.479147 0.20898438 18.03125 C0.12383274 12.02095305 0.05557192 6.01063925 0 0 Z " fill="#C2C9C6" transform="translate(679,817)"/>
<path d="M0 0 C0.33 0.99 0.66 1.98 1 3 C3.00016466 4.20882096 3.00016466 4.20882096 5 5 C3.96166016 5.23783203 3.96166016 5.23783203 2.90234375 5.48046875 C-3.90286761 7.10331889 -10.49620373 9.07735939 -17.09790039 11.3737793 C-21.8072812 13 -21.8072812 13 -24 13 C-24 12.34 -24 11.68 -24 11 C-18.53465462 7.97639638 -13.0536882 4.98375691 -7.5 2.125 C-6.7059375 1.71507812 -5.911875 1.30515625 -5.09375 0.8828125 C-3 0 -3 0 0 0 Z " fill="#254737" transform="translate(533,278)"/>
<path d="M0 0 C3.29158865 -0.05905417 6.58303756 -0.09394375 9.875 -0.125 C10.7928125 -0.14175781 11.710625 -0.15851563 12.65625 -0.17578125 C19.00812606 -0.22051277 24.82610036 0.51148437 31 2 C31 2.33 31 2.66 31 3 C30.43079834 3.02505615 29.86159668 3.0501123 29.27514648 3.07592773 C26.66242687 3.19293894 24.04997638 3.3151828 21.4375 3.4375 C20.54224609 3.47681641 19.64699219 3.51613281 18.72460938 3.55664062 C17.84482422 3.59853516 16.96503906 3.64042969 16.05859375 3.68359375 C15.19347168 3.72339355 14.32834961 3.76319336 13.43701172 3.80419922 C10.73477199 3.96680811 10.73477199 3.96680811 7.09765625 4.84765625 C6.07542969 4.89792969 5.05320312 4.94820313 4 5 C1.5625 2.5625 1.5625 2.5625 0 0 Z " fill="#EAE7DE" transform="translate(608,403)"/>
<path d="M0 0 C4.60585517 3.75988177 8.57123921 7.63696367 12.421875 12.1640625 C14.18445531 14.2145891 16.04971072 16.12772229 18 18 C13.38525892 16.42359036 9.70135991 13.9706674 5.75 11.1875 C4.79480469 10.54844727 4.79480469 10.54844727 3.8203125 9.89648438 C0.92780084 7.86249479 -0.80588471 6.5946837 -1.921875 3.17578125 C-1.94765625 2.45777344 -1.9734375 1.73976563 -2 1 C-1.34 0.67 -0.68 0.34 0 0 Z " fill="#E5E7E6" transform="translate(510,593)"/>
<path d="M0 0 C0.66 0.33 1.32 0.66 2 1 C2 6.28 2 11.56 2 17 C1.67 17 1.34 17 1 17 C0.67 13.7 0.34 10.4 0 7 C-2.31 8.65 -4.62 10.3 -7 12 C-7.66 11.67 -8.32 11.34 -9 11 C-8.67 9.68 -8.34 8.36 -8 7 C-8.66 6.67 -9.32 6.34 -10 6 C-9.44570313 5.73445312 -8.89140625 5.46890625 -8.3203125 5.1953125 C-7.59585937 4.84210937 -6.87140625 4.48890625 -6.125 4.125 C-5.40570313 3.77695312 -4.68640625 3.42890625 -3.9453125 3.0703125 C-1.84864981 2.03442457 -1.84864981 2.03442457 0 0 Z " fill="#223A32" transform="translate(385,864)"/>
<path d="M0 0 C0 0.99 0 1.98 0 3 C-4.22222222 6 -4.22222222 6 -7 6 C-6.67 7.32 -6.34 8.64 -6 10 C-8.6875 11.625 -8.6875 11.625 -12 13 C-14.875 12.1875 -14.875 12.1875 -17 11 C-16.67 10.01 -16.34 9.02 -16 8 C-16 8.66 -16 9.32 -16 10 C-15.01257813 9.278125 -14.02515625 8.55625 -13.0078125 7.8125 C-11.71372097 6.87475251 -10.41944031 5.93726598 -9.125 5 C-8.47402344 4.52304687 -7.82304688 4.04609375 -7.15234375 3.5546875 C-2.2265625 0 -2.2265625 0 0 0 Z " fill="#254337" transform="translate(718,806)"/>
<path d="M0 0 C-0.33 1.32 -0.66 2.64 -1 4 C-0.34 4.33 0.32 4.66 1 5 C-0.43554025 5.50559908 -1.8735202 6.0042749 -3.3125 6.5 C-4.51326172 6.91765625 -4.51326172 6.91765625 -5.73828125 7.34375 C-8 8 -8 8 -11 8 C-11 6.68 -11 5.36 -11 4 C-11.66 3.67 -12.32 3.34 -13 3 C-11.39743892 2.49487756 -9.79288208 1.99608373 -8.1875 1.5 C-7.29417969 1.2215625 -6.40085937 0.943125 -5.48046875 0.65625 C-3 0 -3 0 0 0 Z " fill="#324E40" transform="translate(630,837)"/>
<path d="M0 0 C0.66 0.33 1.32 0.66 2 1 C1.67 1.99 1.34 2.98 1 4 C-1.97 4 -4.94 4 -8 4 C-8.268125 4.969375 -8.53625 5.93875 -8.8125 6.9375 C-9.204375 7.948125 -9.59625 8.95875 -10 10 C-10.99 10.33 -11.98 10.66 -13 11 C-15.6875 9.0625 -15.6875 9.0625 -18 7 C-15.56292162 6.0197729 -13.12536055 5.04077829 -10.6875 4.0625 C-9.99720703 3.78470703 -9.30691406 3.50691406 -8.59570312 3.22070312 C-5.74732227 2.07859872 -2.91209306 0.97069769 0 0 Z " fill="#274337" transform="translate(551,270)"/>
<path d="M0 0 C0.66 0.33 1.32 0.66 2 1 C1.67 1.99 1.34 2.98 1 4 C1.66 4.33 2.32 4.66 3 5 C2.2575 5.28875 1.515 5.5775 0.75 5.875 C-1.89628802 6.91047053 -1.89628802 6.91047053 -3.9375 8 C-6.5486247 9.26599985 -9.23790091 10.12115029 -12 11 C-10.50253294 7.11002809 -8.29577922 5.53051948 -4.875 3.25 C-3.50988281 2.32960938 -3.50988281 2.32960938 -2.1171875 1.390625 C-1.06917969 0.70226562 -1.06917969 0.70226562 0 0 Z " fill="#2C463C" transform="translate(211,887)"/>
<path d="M0 0 C0 2.46288324 -0.03536272 4.91769875 -0.09179688 7.37963867 C-0.11181763 8.26032516 -0.13183838 9.14101166 -0.15246582 10.04838562 C-0.1743396 10.99534805 -0.19621338 11.94231049 -0.21875 12.91796875 C-0.25204407 14.37654045 -0.25204407 14.37654045 -0.28601074 15.86457825 C-0.35702095 18.97222624 -0.42850492 22.07986313 -0.5 25.1875 C-0.54820827 27.29361908 -0.59638574 29.39973886 -0.64453125 31.50585938 C-0.7626633 36.67058117 -0.88122027 41.83529306 -1 47 C-1.33 47 -1.66 47 -2 47 C-2.21860185 40.62848163 -2.41362281 34.25655855 -2.59204102 27.88378906 C-2.65558035 25.71467658 -2.72457399 23.54571688 -2.79907227 21.37695312 C-2.90504724 18.26456067 -2.99157471 15.15215076 -3.07421875 12.0390625 C-3.11157639 11.065065 -3.14893402 10.0910675 -3.18742371 9.08755493 C-3.20767105 8.18677216 -3.2279184 7.28598938 -3.2487793 6.35791016 C-3.27320602 5.56293121 -3.29763275 4.76795227 -3.32279968 3.94888306 C-3.21627579 3.30575165 -3.10975189 2.66262024 -3 2 C-2.01 1.34 -1.02 0.68 0 0 Z " fill="#EFF1F0" transform="translate(527,817)"/>
<path d="M0 0 C-3.70105062 4.77554919 -3.70105062 4.77554919 -7.125 5.3671875 C-11.48817271 5.38192795 -15.72327501 4.87727692 -20 4 C-20 3.67 -20 3.34 -20 3 C-19.02417969 2.79503906 -18.04835938 2.59007812 -17.04296875 2.37890625 C-15.77066406 2.10949219 -14.49835938 1.84007812 -13.1875 1.5625 C-11.92292969 1.29566406 -10.65835937 1.02882813 -9.35546875 0.75390625 C-2.41585535 -0.80528512 -2.41585535 -0.80528512 0 0 Z " fill="#3B544A" transform="translate(368,903)"/>
<path d="M0 0 C0.99 0.66 1.98 1.32 3 2 C1.7934375 2.61875 1.7934375 2.61875 0.5625 3.25 C-2.17125741 4.68720448 -2.17125741 4.68720448 -2.4375 7 C-3 9 -3 9 -6.0625 10.75 C-7.5165625 11.36875 -7.5165625 11.36875 -9 12 C-9.66 11.34 -10.32 10.68 -11 10 C-9.68 9.67 -8.36 9.34 -7 9 C-7.33 7.68 -7.66 6.36 -8 5 C-4.04 2.525 -4.04 2.525 0 0 Z " fill="#234135" transform="translate(535,806)"/>
<path d="M0 0 C0.75410156 0.00451172 1.50820313 0.00902344 2.28515625 0.01367188 C4.14847127 0.02546501 6.01174555 0.04340058 7.875 0.0625 C7.545 1.0525 7.215 2.0425 6.875 3.0625 C4.60442623 3.11648987 2.33348712 3.15528742 0.0625 3.1875 C-1.83435547 3.22230469 -1.83435547 3.22230469 -3.76953125 3.2578125 C-7.125 3.0625 -7.125 3.0625 -10.125 1.0625 C-6.93675432 -0.53162284 -3.49603338 -0.03924735 0 0 Z " fill="#234336" transform="translate(811.125,696.9375)"/>
<path d="M0 0 C0 1.66666667 0 3.33333333 0 5 C-2.12392506 5.6700834 -4.24917524 6.33596797 -6.375 7 C-7.55835938 7.37125 -8.74171875 7.7425 -9.9609375 8.125 C-13 9 -13 9 -15 9 C-15 8.34 -15 7.68 -15 7 C-13.20856793 6.0204042 -11.41684696 5.0413367 -9.625 4.0625 C-8.62726562 3.51722656 -7.62953125 2.97195313 -6.6015625 2.41015625 C-2.15512465 0 -2.15512465 0 0 0 Z " fill="#31423C" transform="translate(524,282)"/>
<path d="M0 0 C0 0.99 0 1.98 0 3 C-0.69867187 3.13277344 -1.39734375 3.26554688 -2.1171875 3.40234375 C-3.02726563 3.57894531 -3.93734375 3.75554688 -4.875 3.9375 C-6.23238281 4.19853516 -6.23238281 4.19853516 -7.6171875 4.46484375 C-9.99956317 4.89963701 -9.99956317 4.89963701 -12 6 C-12.66 5.34 -13.32 4.68 -14 4 C-9.28840397 0.26321694 -5.98096662 -0.11284843 0 0 Z " fill="#2F4E40" transform="translate(796,764)"/>
<path d="M0 0 C2 1 2 1 3.1875 4.25 C4.11987547 8.55327142 3.9488034 11.1023932 2 15 C1.34 15 0.68 15 0 15 C0 10.05 0 5.1 0 0 Z " fill="#E8EBEA" transform="translate(455,804)"/>
<path d="M0 0 C0 3.73869249 -0.90485692 4.36550705 -3.375 7.0625 C-4.31472656 8.10083984 -4.31472656 8.10083984 -5.2734375 9.16015625 C-8.87109747 12.99386178 -8.87109747 12.99386178 -11.625 13.125 C-12.40875 13.08375 -13.1925 13.0425 -14 13 C-10.78105326 9.64693048 -7.31805468 6.62201707 -3.8046875 3.5859375 C-2.49559495 2.43552284 -1.23231027 1.23231027 0 0 Z " fill="#274638" transform="translate(731,622)"/>
<path d="M0 0 C-0.99 0 -1.98 0 -3 0 C-2.67 1.65 -2.34 3.3 -2 5 C-4.76276177 4.47731534 -7.3260876 3.89130413 -10 3 C-11.33106622 2.65772583 -12.66400079 2.32248257 -14 2 C-12.42085985 1.46658816 -10.83645613 0.94874237 -9.25 0.4375 C-8.36828125 0.14746094 -7.4865625 -0.14257812 -6.578125 -0.44140625 C-3.92165684 -1.01697435 -2.52968894 -0.89248371 0 0 Z " fill="#BCA782" transform="translate(997,837)"/>
<path d="M0 0 C0.66 1.32 1.32 2.64 2 4 C-3.0940919 10.70459519 -3.0940919 10.70459519 -6.875 11.9375 C-7.57625 11.958125 -8.2775 11.97875 -9 12 C-9 10.68 -9 9.36 -9 8 C-8.05125 7.71125 -7.1025 7.4225 -6.125 7.125 C-2.94788422 6.23174891 -2.94788422 6.23174891 -1 4 C-0.3574765 1.93125966 -0.3574765 1.93125966 0 0 Z " fill="#2E453C" transform="translate(782,869)"/>
<path d="M0 0 C1.8125 0.75 1.8125 0.75 2.8125 2.75 C1.17837557 4.45840281 -0.05656094 5.68453047 -2.1875 6.75 C-4.3125 5.8125 -4.3125 5.8125 -6.1875 4.75 C-6.1875 3.76 -6.1875 2.77 -6.1875 1.75 C-3.9127187 0.36888278 -2.68578639 -0.30694702 0 0 Z " fill="#2B463C" transform="translate(257.1875,759.25)"/>
<path d="M0 0 C5.94 1.485 5.94 1.485 12 3 C12 3.33 12 3.66 12 4 C7.38 4 2.76 4 -2 4 C-1.34 2.68 -0.68 1.36 0 0 Z " fill="#E2E6E3" transform="translate(570,444)"/>
<path d="M0 0 C0.99 0.33 1.98 0.66 3 1 C0.17616228 3.92842431 -2.64903895 6.68010389 -6 9 C-6.99 8.67 -7.98 8.34 -9 8 C-2.92207792 1.75324675 -2.92207792 1.75324675 0 0 Z " fill="#B59D72" transform="translate(444,334)"/>
<path d="M0 0 C0.99 1.32 1.98 2.64 3 4 C-1.625 8 -1.625 8 -5 8 C-5 7.34 -5 6.68 -5 6 C-4.34 6 -3.68 6 -3 6 C-3 5.34 -3 4.68 -3 4 C-3.66 3.67 -4.32 3.34 -5 3 C-3.35 2.01 -1.7 1.02 0 0 Z " fill="#B49C72" transform="translate(996,867)"/>
<path d="M0 0 C0.33 1.32 0.66 2.64 1 4 C-0.11375 4.474375 -1.2275 4.94875 -2.375 5.4375 C-4.26710994 6.25306463 -6.15712709 7.07856355 -8 8 C-7.42415568 5.61435923 -6.77772405 3.33317216 -6 1 C-4.7934375 1.0309375 -4.7934375 1.0309375 -3.5625 1.0625 C-1.06645115 1.29633621 -1.06645115 1.29633621 0 0 Z " fill="#B9A381" transform="translate(944,762)"/>
<path d="M0 0 C0.33 0.66 0.66 1.32 1 2 C-0.25 4.5625 -0.25 4.5625 -2 7 C-2.99 7.33 -3.98 7.66 -5 8 C-5 6.68 -5 5.36 -5 4 C-5.66 3.67 -6.32 3.34 -7 3 C-4.69 2.01 -2.38 1.02 0 0 Z " fill="#3B534A" transform="translate(474,368)"/>
<path d="M0 0 C0.66 0.33 1.32 0.66 2 1 C2 6.28 2 11.56 2 17 C1.67 17 1.34 17 1 17 C0.93941406 16.31292969 0.87882812 15.62585938 0.81640625 14.91796875 C0.73261719 14.01691406 0.64882813 13.11585938 0.5625 12.1875 C0.48128906 11.29417969 0.40007812 10.40085937 0.31640625 9.48046875 C0.06510233 6.87256441 0.06510233 6.87256441 -1 4 C-1.66 3.67 -2.32 3.34 -3 3 C-2.01 2.01 -1.02 1.02 0 0 Z " fill="#4C6456" transform="translate(385,864)"/>
<path d="M0 0 C-1.65 1.65 -3.3 3.3 -5 5 C-5.66 4.67 -6.32 4.34 -7 4 C-6.67 2.68 -6.34 1.36 -6 0 C-6.66 -0.33 -7.32 -0.66 -8 -1 C-4.37673261 -2.2077558 -3.35853631 -1.54311128 0 0 Z " fill="#2C473C" transform="translate(634,872)"/>
<path d="M0 0 C0.66 0.33 1.32 0.66 2 1 C1.43410156 1.55429687 0.86820312 2.10859375 0.28515625 2.6796875 C-0.44832031 3.40414063 -1.18179687 4.12859375 -1.9375 4.875 C-2.66839844 5.59429687 -3.39929688 6.31359375 -4.15234375 7.0546875 C-6.05667999 8.87027192 -6.05667999 8.87027192 -7 11 C-7.99 10.67 -8.98 10.34 -10 10 C-8.7121669 8.51749445 -7.41960936 7.03909182 -6.125 5.5625 C-5.40570313 4.73878906 -4.68640625 3.91507812 -3.9453125 3.06640625 C-2 1 -2 1 0 0 Z " fill="#264138" transform="translate(440,390)"/>
<path d="M0 0 C1.32 0 2.64 0 4 0 C3.65120368 3.25543229 2.97866739 4.01873107 0.4375 6.25 C-0.366875 6.8275 -1.17125 7.405 -2 8 C-1.125 1.125 -1.125 1.125 0 0 Z " fill="#B5A27A" transform="translate(1079,870)"/>
<path d="M0 0 C2.64 0.33 5.28 0.66 8 1 C8 1.66 8 2.32 8 3 C5.36 3.66 2.72 4.32 0 5 C-0.33 4.34 -0.66 3.68 -1 3 C-0.67 2.01 -0.34 1.02 0 0 Z " fill="#D7DDD9" transform="translate(214,881)"/>
<path d="M0 0 C-0.66 1.32 -1.32 2.64 -2 4 C-3.65 4 -5.3 4 -7 4 C-7 3.34 -7 2.68 -7 2 C-7.66 1.67 -8.32 1.34 -9 1 C-3.375 -1.125 -3.375 -1.125 0 0 Z " fill="#254137" transform="translate(682,876)"/>
<path d="M0 0 C-0.66 1.65 -1.32 3.3 -2 5 C-4.875 5.125 -4.875 5.125 -8 5 C-8.66 4.34 -9.32 3.68 -10 3 C-3.375 0 -3.375 0 0 0 Z " fill="#314740" transform="translate(866,684)"/>
<path d="M0 0 C2.99220268 1.36370299 5.29026529 2.94908083 7.75 5.125 C8.67039062 5.93324219 8.67039062 5.93324219 9.609375 6.7578125 C10.06828125 7.16773438 10.5271875 7.57765625 11 8 C10.01 8.495 10.01 8.495 9 9 C7.491987 8.07544441 5.99375083 7.1349253 4.5 6.1875 C3.6646875 5.66542969 2.829375 5.14335938 1.96875 4.60546875 C0.99421875 3.81076172 0.99421875 3.81076172 0 3 C0 2.01 0 1.02 0 0 Z " fill="#D5D8D7" transform="translate(517,602)"/>
<path d="M0 0 C1.11375 0.7115625 1.11375 0.7115625 2.25 1.4375 C4.61050015 2.77869327 6.36648477 3.512312 9 4 C8.67 5.32 8.34 6.64 8 8 C8 7.01 8 6.02 8 5 C7.01 5 6.02 5 5 5 C5 5.66 5 6.32 5 7 C4.34 7 3.68 7 3 7 C3 6.34 3 5.68 3 5 C2.34 5 1.68 5 1 5 C0.67 3.35 0.34 1.7 0 0 Z " fill="#B5A385" transform="translate(936,873)"/>
<path d="M0 0 C0.66 0.33 1.32 0.66 2 1 C1.34 1.66 0.68 2.32 0 3 C1.65 3 3.3 3 5 3 C1.87740563 6.12259437 -1.71466712 6.14293342 -6 7 C-4.02 4.69 -2.04 2.38 0 0 Z " fill="#172E24" transform="translate(517,674)"/>
<path d="M0 0 C2.23551759 3.35327639 2.17283528 3.90743657 1.625 7.6875 C1.51414062 8.49574219 1.40328125 9.30398438 1.2890625 10.13671875 C1.19367187 10.75160156 1.09828125 11.36648438 1 12 C0.01 12 -0.98 12 -2 12 C-2.05422947 10.5629191 -2.09289723 9.12524538 -2.125 7.6875 C-2.14820313 6.88699219 -2.17140625 6.08648438 -2.1953125 5.26171875 C-2 3 -2 3 0 0 Z " fill="#284838" transform="translate(727,533)"/>
<path d="M0 0 C0.33 0 0.66 0 1 0 C1.33 2.64 1.66 5.28 2 8 C2.33 8 2.66 8 3 8 C3 10.97 3 13.94 3 17 C0.65709108 14.51565563 0.02017066 13.22268407 -0.29296875 9.765625 C-0.24076172 8.02539062 -0.24076172 8.02539062 -0.1875 6.25 C-0.16042969 5.07953125 -0.13335937 3.9090625 -0.10546875 2.703125 C-0.07066406 1.81109375 -0.03585937 0.9190625 0 0 Z " fill="#244236" transform="translate(450,471)"/>
<path d="M0 0 C-0.66 0.66 -1.32 1.32 -2 2 C-2.99 2 -3.98 2 -5 2 C-5 2.99 -5 3.98 -5 5 C-6.98 4.34 -8.96 3.68 -11 3 C-3.71428571 -1.85714286 -3.71428571 -1.85714286 0 0 Z " fill="#D4DAD8" transform="translate(273,881)"/>
<path d="M0 0 C-0.6875 1.9375 -0.6875 1.9375 -2 4 C-4.625 4.75 -4.625 4.75 -7 5 C-7 3.68 -7 2.36 -7 1 C-4.53721199 -0.231394 -2.7204945 -0.07159196 0 0 Z " fill="#B29978" transform="translate(832,876)"/>
<path d="M0 0 C2.37948772 0.17625835 3.70225849 0.69719773 5.37890625 2.40234375 C6.62115486 3.90649092 7.81376056 5.45129851 9 7 C8.01 7.495 8.01 7.495 7 8 C5.8274869 7.04882866 4.66212985 6.08882991 3.5 5.125 C2.8503125 4.59132813 2.200625 4.05765625 1.53125 3.5078125 C1.0259375 3.01023437 0.520625 2.51265625 0 2 C0 1.34 0 0.68 0 0 Z " fill="#E2E4E3" transform="translate(524,867)"/>
<path d="M0 0 C0.66 0 1.32 0 2 0 C2 0.99 2 1.98 2 3 C1.34 3 0.68 3 0 3 C0.33 4.32 0.66 5.64 1 7 C-0.98 7.33 -2.96 7.66 -5 8 C-2.25 2.25 -2.25 2.25 0 0 Z " fill="#2A4839" transform="translate(521,670)"/>
<path d="M0 0 C3.03852705 1.40976705 5.5939595 3.08870228 8.25 5.125 C8.95640625 5.66382813 9.6628125 6.20265625 10.390625 6.7578125 C10.92171875 7.16773438 11.4528125 7.57765625 12 8 C11.01 8.33 10.02 8.66 9 9 C6.73828125 7.63671875 6.73828125 7.63671875 4.3125 5.6875 C3.50425781 5.05199219 2.69601562 4.41648437 1.86328125 3.76171875 C1.24839844 3.18035156 0.63351562 2.59898437 0 2 C0 1.34 0 0.68 0 0 Z " fill="#273E32" transform="translate(504,595)"/>
<path d="M0 0 C2.95409701 1.37154504 5.44008376 2.98863724 8 5 C7.67 6.32 7.34 7.64 7 9 C5.82737096 7.88121617 4.66204862 6.75476949 3.5 5.625 C2.8503125 4.99851562 2.200625 4.37203125 1.53125 3.7265625 C0 2 0 2 0 0 Z " fill="#334D42" transform="translate(724,315)"/>
<path d="M0 0 C0.99 0.66 1.98 1.32 3 2 C0.03 4.64 -2.94 7.28 -6 10 C-6.66 9.67 -7.32 9.34 -8 9 C-5.36 6.03 -2.72 3.06 0 0 Z " fill="#E5E9E8" transform="translate(573,865)"/>
<path d="M0 0 C0.66 0.33 1.32 0.66 2 1 C2 3.31 2 5.62 2 8 C1.01 8.33 0.02 8.66 -1 9 C-1.125 2.25 -1.125 2.25 0 0 Z " fill="#B0925F" transform="translate(971,818)"/>
<path d="M0 0 C-3.95523655 2.75668002 -7.22423661 3.5317879 -12 4 C-8.66437635 0.13769893 -4.98576775 -1.84658065 0 0 Z " fill="#DEE2E1" transform="translate(641,548)"/>
<path d="M0 0 C-2.85306797 2.32472205 -5.54074837 3.7508258 -9 5 C-9 4.01 -9 3.02 -9 2 C-3.375 -1.125 -3.375 -1.125 0 0 Z " fill="#EFF1F1" transform="translate(524,281)"/>
<path d="M0 0 C-1.28524261 0.86380259 -2.57842419 1.71580369 -3.875 2.5625 C-4.59429688 3.03816406 -5.31359375 3.51382813 -6.0546875 4.00390625 C-6.69664063 4.33261719 -7.33859375 4.66132812 -8 5 C-8.66 4.67 -9.32 4.34 -10 4 C-9.67 3.01 -9.34 2.02 -9 1 C-2.63157895 -1.31578947 -2.63157895 -1.31578947 0 0 Z " fill="#B6A37C" transform="translate(1060,784)"/>
<path d="M0 0 C3.77545388 1.09068668 6.47043472 1.9083091 9 5 C6 6 6 6 4.17578125 5.22265625 C2.45052083 4.1484375 0.72526042 3.07421875 -1 2 C-0.67 1.34 -0.34 0.68 0 0 Z " fill="#2F483E" transform="translate(278,766)"/>
<path d="M0 0 C0.66 0.99 1.32 1.98 2 3 C1.01 4.32 0.02 5.64 -1 7 C-2.32 6.67 -3.64 6.34 -5 6 C-3.35 4.02 -1.7 2.04 0 0 Z " fill="#2E483E" transform="translate(561,447)"/>
<path d="M0 0 C-0.33 0.99 -0.66 1.98 -1 3 C-4.3 3 -7.6 3 -11 3 C-3.71428571 -1.85714286 -3.71428571 -1.85714286 0 0 Z " fill="#475F52" transform="translate(553,271)"/>
<path d="M0 0 C0 1.98 0 3.96 0 6 C-0.763125 5.38125 -1.52625 4.7625 -2.3125 4.125 C-4.99625809 1.94402948 -4.99625809 1.94402948 -8 0 C-4.94736336 -0.98120464 -3.05263664 -0.98120464 0 0 Z " fill="#31473D" transform="translate(455,804)"/>
<path d="M0 0 C2.97 0.495 2.97 0.495 6 1 C6 1.99 6 2.98 6 4 C3.03 3.67 0.06 3.34 -3 3 C-2.01 2.67 -1.02 2.34 0 2 C0 1.34 0 0.68 0 0 Z " fill="#E3E7E4" transform="translate(781,691)"/>
<path d="M0 0 C5.75 0.875 5.75 0.875 8 2 C7.67 2.99 7.34 3.98 7 5 C5.35 4.67 3.7 4.34 2 4 C2 3.34 2 2.68 2 2 C1.34 1.34 0.68 0.68 0 0 Z " fill="#D2D6D4" transform="translate(648,547)"/>
<path d="M0 0 C0.99 0.33 1.98 0.66 3 1 C0.87219421 3.34058637 -1.11562221 4.70700306 -4 6 C-4.66 5.34 -5.32 4.68 -6 4 C-3.1875 1.9375 -3.1875 1.9375 0 0 Z " fill="#BA9D74" transform="translate(452,329)"/>
<path d="M0 0 C3.7952131 1.49097658 5.61042731 3.75700849 8 7 C5 7 5 7 2.3125 4.625 C0 2 0 2 0 0 Z " fill="#344E3F" transform="translate(774,319)"/>
<path d="M0 0 C0 0.66 0 1.32 0 2 C-1.98 2.66 -3.96 3.32 -6 4 C-6 4.66 -6 5.32 -6 6 C-8 5 -8 5 -9 3 C-3.375 0 -3.375 0 0 0 Z " fill="#395649" transform="translate(533,278)"/>
<path d="M0 0 C1.36125 0.12375 1.36125 0.12375 2.75 0.25 C2.75 0.91 2.75 1.57 2.75 2.25 C-0.55 2.91 -3.85 3.57 -7.25 4.25 C-4.83923194 1.28290085 -3.90322061 0.30024774 0 0 Z " fill="#DBDFDD" transform="translate(468.25,816.75)"/>
<path d="M0 0 C0.33 1.32 0.66 2.64 1 4 C-0.98 4.33 -2.96 4.66 -5 5 C-4.67 3.68 -4.34 2.36 -4 1 C-2.68 0.67 -1.36 0.34 0 0 Z " fill="#BAA280" transform="translate(866,762)"/>
<path d="M0 0 C1.125 3.75 1.125 3.75 0 6 C-2.475 5.01 -2.475 5.01 -5 4 C-3.36587557 2.29159719 -2.13093906 1.06546953 0 0 Z " fill="#33473E" transform="translate(706,642)"/>
<path d="M0 0 C0.66 0.99 1.32 1.98 2 3 C1.375 5.625 1.375 5.625 0 8 C-2.125 8.8125 -2.125 8.8125 -4 9 C-2.80100302 5.9168649 -1.52299523 2.93720508 0 0 Z " fill="#E3E9E8" transform="translate(814,566)"/>
<path d="M0 0 C2.31 1.98 4.62 3.96 7 6 C6.34 6.66 5.68 7.32 5 8 C3.02 5.69 1.04 3.38 -1 1 C-0.67 0.67 -0.34 0.34 0 0 Z " fill="#F4F6F6" transform="translate(725,318)"/>
<path d="M0 0 C2.31 1.98 4.62 3.96 7 6 C6.34 6.66 5.68 7.32 5 8 C3.02 5.69 1.04 3.38 -1 1 C-0.67 0.67 -0.34 0.34 0 0 Z " fill="#F7F7F7" transform="translate(775,316)"/>
<path d="M0 0 C-0.33 1.32 -0.66 2.64 -1 4 C-2.65 4.33 -4.3 4.66 -6 5 C-6 3.68 -6 2.36 -6 1 C-3 0 -3 0 0 0 Z " fill="#B89B81" transform="translate(909,876)"/>
<path d="M0 0 C-0.33 1.65 -0.66 3.3 -1 5 C-1.99 4.67 -2.98 4.34 -4 4 C-4 3.34 -4 2.68 -4 2 C-4.66 1.67 -5.32 1.34 -6 1 C-4 0 -4 0 0 0 Z " fill="#2A483A" transform="translate(384,868)"/>
<path d="M0 0 C0.66 0 1.32 0 2 0 C2.66 2.97 3.32 5.94 4 9 C3.34 9 2.68 9 2 9 C0.14223235 5.86501708 -0.20140476 3.62528568 0 0 Z " fill="#2B4439" transform="translate(351,857)"/>
<path d="M0 0 C0.33 0.99 0.66 1.98 1 3 C-0.98 3.99 -0.98 3.99 -3 5 C-2.34 5.33 -1.68 5.66 -1 6 C-2.32 6 -3.64 6 -5 6 C-4.75 4.125 -4.75 4.125 -4 2 C-1.9375 0.75 -1.9375 0.75 0 0 Z " fill="#AF9E78" transform="translate(1034,806)"/>
<path d="M0 0 C0 3.63327194 -0.95586411 5.04735927 -3 8 C-3.99 8.66 -4.98 9.32 -6 10 C-4.6302836 6.00499382 -2.74277578 3.19990508 0 0 Z " fill="#E7EAE9" transform="translate(213,777)"/>
<path d="M0 0 C1.32 0 2.64 0 4 0 C4 0.66 4 1.32 4 2 C4.99 2.33 5.98 2.66 7 3 C4.69 3.33 2.38 3.66 0 4 C0 2.68 0 1.36 0 0 Z " fill="#B59A72" transform="translate(903,762)"/>
<path d="M0 0 C0.66 0.99 1.32 1.98 2 3 C1.34 3 0.68 3 0 3 C-0.12375 3.639375 -0.2475 4.27875 -0.375 4.9375 C-0.58125 5.618125 -0.7875 6.29875 -1 7 C-1.99 7.495 -1.99 7.495 -3 8 C-3.66 7.34 -4.32 6.68 -5 6 C-3.35 4.02 -1.7 2.04 0 0 Z " fill="#2B473C" transform="translate(741,611)"/>
<path d="M0 0 C0.66 0.66 1.32 1.32 2 2 C1.61121812 5.01305957 0.73543126 6.39685311 -1 9 C-1.66 9 -2.32 9 -3 9 C-2.01 6.03 -1.02 3.06 0 0 Z " fill="#AE976D" transform="translate(401,383)"/>
<path d="M0 0 C-0.33 0.66 -0.66 1.32 -1 2 C-3.375 2.75 -3.375 2.75 -6 3 C-6.99 2.34 -7.98 1.68 -9 1 C-5.57367167 -0.61798838 -3.61944899 -1.34053666 0 0 Z " fill="#BAA082" transform="translate(977,843)"/>
<path d="M0 0 C0.33 1.32 0.66 2.64 1 4 C-1.475 5.485 -1.475 5.485 -4 7 C-4 4 -4 4 -2 1.8125 C-1.34 1.214375 -0.68 0.61625 0 0 Z " fill="#2D493E" transform="translate(518,493)"/>
<path d="M0 0 C0.66 0.33 1.32 0.66 2 1 C0.68 2.65 -0.64 4.3 -2 6 C-3.32 5.67 -4.64 5.34 -6 5 C-5.195625 4.360625 -4.39125 3.72125 -3.5625 3.0625 C-1.7249496 1.59396498 -1.7249496 1.59396498 0 0 Z " fill="#F3EFE4" transform="translate(450,364)"/>
<path d="M0 0 C0.433125 0.61875 0.86625 1.2375 1.3125 1.875 C2.99740483 4.2197245 2.99740483 4.2197245 6 6 C4.68 6.33 3.36 6.66 2 7 C0.4375 5.1875 0.4375 5.1875 -1 3 C-0.67 2.01 -0.34 1.02 0 0 Z " fill="#ECEFEC" transform="translate(757,869)"/>
<path d="M0 0 C0 0.66 0 1.32 0 2 C-0.99 2.495 -0.99 2.495 -2 3 C-2.65213292 5.02463255 -2.65213292 5.02463255 -3 7 C-3.66 7 -4.32 7 -5 7 C-5.1875 4.625 -5.1875 4.625 -5 2 C-2 0 -2 0 0 0 Z " fill="#32493C" transform="translate(482,521)"/>
<path d="M0 0 C0 0.99 0 1.98 0 3 C-2.64 3.33 -5.28 3.66 -8 4 C-2.7826087 0 -2.7826087 0 0 0 Z " fill="#2D473A" transform="translate(467,372)"/>
<path d="M0 0 C2.66666667 0.66666667 5.33333333 1.33333333 8 2 C1.71428571 4.42857143 1.71428571 4.42857143 -2 3 C-1.34 2.01 -0.68 1.02 0 0 Z " fill="#133327" transform="translate(524,282)"/>
</svg>
